{"glyphs":{"0":{"ha":1037,"x_min":28,"x_max":1160,"o":"m 428 528 l 825 528 l 760 286 l 363 286 l 428 528 m 880 572 l 395 572 l 307 242 l 792 242 l 880 572 m 1069 814 q 1143 779 1118 814 q 1160 727 1160 756 q 1156 695 1160 711 l 1001 119 q 944 35 988 71 q 850 0 899 0 l 119 0 q 44 35 70 0 q 28 87 28 58 q 32 119 28 102 l 186 695 q 243 779 199 743 q 337 814 288 814 l 1069 814 z "},"1":{"ha":437,"x_min":127,"x_max":559,"o":"m 470 814 q 543 779 519 814 q 559 728 559 757 q 555 696 559 713 l 369 0 l 127 0 l 280 572 l 153 572 l 218 814 l 470 814 z "},"2":{"ha":1037,"x_min":28,"x_max":1160,"o":"m 77 288 l 111 414 q 167 496 125 463 q 259 530 211 530 l 886 530 l 897 572 l 153 572 l 218 814 l 1070 814 q 1144 779 1119 814 q 1160 728 1160 757 q 1156 696 1160 713 l 1078 405 q 1022 322 1064 356 q 930 288 978 288 l 77 288 m 119 0 q 45 35 70 0 q 28 87 28 57 q 33 119 28 103 l 65 242 l 1034 242 l 969 0 l 119 0 z "},"3":{"ha":1037,"x_min":0,"x_max":1160,"o":"m 1069 814 q 1143 779 1118 814 q 1160 727 1160 756 q 1156 695 1160 713 l 1001 119 q 944 35 988 71 q 850 0 901 0 l 0 0 l 65 242 l 792 242 l 880 572 l 153 572 l 218 814 l 1069 814 m 279 528 l 825 528 l 760 286 l 214 286 l 279 528 z "},"4":{"ha":1037,"x_min":104,"x_max":1187,"o":"m 760 286 l 195 287 q 121 321 146 287 q 104 374 104 345 q 109 405 104 389 l 218 814 l 460 814 l 384 528 l 825 528 l 760 286 m 1187 814 l 969 0 l 727 0 l 946 814 l 1187 814 z "},"5":{"ha":1037,"x_min":0,"x_max":1187,"o":"m 994 526 q 1067 492 1042 526 q 1083 440 1083 469 q 1079 409 1083 425 l 1000 117 q 945 35 987 68 q 852 0 901 0 l 0 0 l 65 242 l 808 242 l 819 284 l 193 284 q 119 318 145 284 q 103 369 103 340 q 107 400 103 384 l 141 526 l 994 526 m 1187 814 l 1122 572 l 153 572 l 218 814 l 1187 814 z "},"6":{"ha":1037,"x_min":28,"x_max":1160,"o":"m 395 572 l 307 242 l 792 242 l 804 286 l 363 286 l 428 528 l 993 528 q 1067 494 1042 528 q 1084 441 1084 471 q 1079 410 1084 426 l 1001 119 q 944 35 988 71 q 850 0 901 0 l 119 0 q 44 35 70 0 q 28 87 28 58 q 32 119 28 102 l 186 695 q 243 779 199 745 q 337 814 288 814 l 1069 814 q 1143 779 1118 814 q 1160 728 1160 758 q 1156 695 1160 711 l 1122 572 l 395 572 z "},"7":{"ha":1037,"x_min":56,"x_max":1160,"o":"m 1069 528 l 398 0 l 56 0 l 726 528 l 1069 528 m 153 572 l 218 814 l 1069 814 q 1143 779 1118 814 q 1160 727 1160 756 q 1156 695 1160 713 l 1135 619 q 1113 572 1128 595 l 153 572 z "},"8":{"ha":1037,"x_min":28,"x_max":1160,"o":"m 792 242 l 804 286 l 319 286 l 307 242 l 792 242 m 384 528 l 869 528 l 880 572 l 395 572 l 384 528 m 186 695 q 243 779 199 745 q 337 814 288 814 l 1069 814 q 1143 779 1118 814 q 1160 728 1160 758 q 1156 695 1160 711 l 1001 119 q 944 35 988 71 q 850 0 901 0 l 119 0 q 44 35 70 0 q 28 87 28 58 q 32 119 28 102 l 186 695 z "},"9":{"ha":1037,"x_min":28,"x_max":1160,"o":"m 792 242 l 880 572 l 395 572 l 384 528 l 825 528 l 760 286 l 195 286 q 121 321 146 286 q 104 373 104 345 q 109 404 104 388 l 186 695 q 243 779 199 745 q 337 814 288 814 l 1069 814 q 1143 779 1118 814 q 1160 728 1160 758 q 1156 695 1160 711 l 1001 119 q 944 35 988 69 q 850 0 901 0 l 119 0 q 44 35 70 0 q 28 87 28 58 q 32 119 28 102 l 65 242 l 792 242 z "}," ":{"ha":345,"x_min":0,"x_max":0,"o":""}," ":{"ha":345,"x_min":0,"x_max":0,"o":""},"!":{"ha":357,"x_min":0,"x_max":0,"o":""},"\"":{"ha":623,"x_min":0,"x_max":0,"o":""},"#":{"ha":1038,"x_min":0,"x_max":0,"o":""},"$":{"ha":1037,"x_min":0,"x_max":0,"o":""},"%":{"ha":1146,"x_min":0,"x_max":0,"o":""},"&":{"ha":1037,"x_min":0,"x_max":0,"o":""},"'":{"ha":311,"x_min":0,"x_max":0,"o":""},"(":{"ha":670,"x_min":0,"x_max":0,"o":""},")":{"ha":670,"x_min":0,"x_max":0,"o":""},"*":{"ha":418,"x_min":0,"x_max":0,"o":""},"+":{"ha":1038,"x_min":0,"x_max":0,"o":""},",":{"ha":311,"x_min":0,"x_max":0,"o":""},"-":{"ha":872,"x_min":0,"x_max":0,"o":""},"­":{"ha":872,"x_min":0,"x_max":0,"o":""},".":{"ha":311,"x_min":0,"x_max":0,"o":""},"/":{"ha":885,"x_min":0,"x_max":0,"o":""},":":{"ha":311,"x_min":0,"x_max":0,"o":""},";":{"ha":311,"x_min":0,"x_max":0,"o":""},";":{"ha":311,"x_min":0,"x_max":0,"o":""},"<":{"ha":884,"x_min":0,"x_max":0,"o":""},"=":{"ha":872,"x_min":0,"x_max":0,"o":""},">":{"ha":884,"x_min":0,"x_max":0,"o":""},"?":{"ha":1037,"x_min":0,"x_max":0,"o":""},"@":{"ha":1037,"x_min":0,"x_max":0,"o":""},"A":{"ha":1226,"x_min":0,"x_max":0,"o":""},"B":{"ha":1226,"x_min":0,"x_max":0,"o":""},"C":{"ha":1226,"x_min":0,"x_max":0,"o":""},"D":{"ha":1226,"x_min":0,"x_max":0,"o":""},"E":{"ha":1226,"x_min":0,"x_max":0,"o":""},"F":{"ha":1226,"x_min":0,"x_max":0,"o":""},"G":{"ha":1226,"x_min":0,"x_max":0,"o":""},"H":{"ha":1226,"x_min":0,"x_max":0,"o":""},"I":{"ha":357,"x_min":0,"x_max":0,"o":""},"J":{"ha":1226,"x_min":0,"x_max":0,"o":""},"K":{"ha":1227,"x_min":0,"x_max":0,"o":""},"L":{"ha":1226,"x_min":0,"x_max":0,"o":""},"M":{"ha":1376,"x_min":0,"x_max":0,"o":""},"N":{"ha":1226,"x_min":0,"x_max":0,"o":""},"O":{"ha":1226,"x_min":0,"x_max":0,"o":""},"P":{"ha":1226,"x_min":0,"x_max":0,"o":""},"Q":{"ha":1226,"x_min":0,"x_max":0,"o":""},"R":{"ha":1226,"x_min":0,"x_max":0,"o":""},"S":{"ha":1226,"x_min":0,"x_max":0,"o":""},"T":{"ha":1226,"x_min":0,"x_max":0,"o":""},"U":{"ha":1226,"x_min":0,"x_max":0,"o":""},"V":{"ha":1226,"x_min":0,"x_max":0,"o":""},"W":{"ha":1377,"x_min":0,"x_max":0,"o":""},"X":{"ha":1226,"x_min":0,"x_max":0,"o":""},"Y":{"ha":1226,"x_min":0,"x_max":0,"o":""},"Z":{"ha":1226,"x_min":0,"x_max":0,"o":""},"[":{"ha":514,"x_min":0,"x_max":0,"o":""},"\\":{"ha":885,"x_min":0,"x_max":0,"o":""},"]":{"ha":514,"x_min":0,"x_max":0,"o":""},"^":{"ha":454,"x_min":0,"x_max":0,"o":""},"_":{"ha":1038,"x_min":0,"x_max":0,"o":""},"`":{"ha":694,"x_min":0,"x_max":0,"o":""},"a":{"ha":1037,"x_min":0,"x_max":1160,"o":"m 1070 814 q 1144 779 1119 814 q 1160 728 1160 757 q 1156 696 1160 713 l 969 0 l 727 0 l 804 286 l 363 286 l 428 528 l 869 528 l 880 572 l 395 572 l 242 0 l 0 0 l 186 696 q 243 779 200 746 q 336 814 288 814 l 1070 814 z "},"b":{"ha":1037,"x_min":0,"x_max":1160,"o":"m 1069 814 q 1143 779 1118 814 q 1160 727 1160 756 q 1156 695 1160 713 l 1001 119 q 944 35 988 71 q 850 0 901 0 l 0 0 l 65 242 l 792 242 l 804 286 l 77 286 l 142 528 l 869 528 l 880 572 l 153 572 l 218 814 l 1069 814 z "},"c":{"ha":1037,"x_min":28,"x_max":1187,"o":"m 186 695 q 243 779 199 745 q 337 814 288 814 l 1187 814 l 1122 572 l 395 572 l 307 242 l 1034 242 l 969 0 l 119 0 q 44 35 70 0 q 28 87 28 58 q 32 119 28 102 l 186 695 z "},"d":{"ha":1037,"x_min":0,"x_max":1160,"o":"m 1069 814 q 1143 779 1118 814 q 1160 727 1160 756 q 1156 695 1160 713 l 1001 119 q 944 35 988 71 q 850 0 901 0 l 0 0 l 65 242 l 792 242 l 880 572 l 395 572 l 319 286 l 77 286 l 218 814 l 1069 814 z "},"e":{"ha":1037,"x_min":28,"x_max":1187,"o":"m 909 286 l 77 286 l 142 528 l 974 528 l 909 286 m 1187 814 l 1122 572 l 153 572 l 218 814 l 1187 814 m 65 242 l 1034 242 l 969 0 l 119 0 q 45 35 70 0 q 28 87 28 57 q 33 119 28 103 l 65 242 z "},"f":{"ha":1037,"x_min":0,"x_max":1187,"o":"m 142 528 l 974 528 l 909 286 l 319 286 l 242 0 l 0 0 l 142 528 m 1187 814 l 1122 572 l 153 572 l 186 694 q 244 779 199 744 q 338 814 288 814 l 1187 814 z "},"g":{"ha":1037,"x_min":28,"x_max":1187,"o":"m 119 0 q 44 35 70 0 q 28 87 28 58 q 32 119 28 102 l 186 695 q 243 779 199 745 q 337 814 288 814 l 1187 814 l 1122 572 l 395 572 l 307 242 l 792 242 l 869 528 l 1111 528 l 1001 117 q 945 35 987 68 q 852 0 901 0 l 119 0 z "},"h":{"ha":1037,"x_min":0,"x_max":1187,"o":"m 460 814 l 242 0 l 0 0 l 218 814 l 460 814 m 969 0 l 727 0 l 804 286 l 363 286 l 428 528 l 869 528 l 946 814 l 1187 814 l 969 0 z "},"i":{"ha":310,"x_min":0,"x_max":460,"o":"m 460 814 l 242 0 l 0 0 l 218 814 l 460 814 z "},"j":{"ha":1037,"x_min":0,"x_max":1187,"o":"m 1187 814 l 1000 117 q 945 35 987 68 q 852 0 901 0 l 0 0 l 65 242 l 713 242 q 775 265 746 242 q 813 321 804 288 l 945 814 l 1187 814 z "},"k":{"ha":1038,"x_min":0,"x_max":1188,"o":"m 1053 441 q 1027 407 1031 424 q 1026 397 1026 400 q 1035 373 1026 385 q 1052 321 1052 351 q 1047 290 1052 306 l 970 0 l 728 0 l 772 168 q 777 198 777 184 q 760 252 777 229 q 685 286 734 286 l 363 286 l 427 528 l 749 528 q 842 562 799 528 q 901 647 887 598 l 946 814 l 1188 814 l 1110 524 q 1053 441 1097 475 m 242 0 l 0 0 l 218 814 l 460 814 l 242 0 z "},"l":{"ha":1037,"x_min":27,"x_max":1034,"o":"m 460 814 l 328 321 q 326 300 326 311 q 336 265 326 280 q 387 242 353 242 l 1034 242 l 969 0 l 117 0 q 44 35 68 0 q 27 86 27 56 q 31 117 27 101 l 218 814 l 460 814 z "},"m":{"ha":1162,"x_min":0,"x_max":1285,"o":"m 810 527 l 701 121 l 459 121 l 568 527 l 810 527 m 1194 814 q 1269 779 1244 814 q 1285 727 1285 756 q 1280 694 1285 711 l 1095 0 l 852 0 l 1006 571 l 395 571 l 242 0 l 0 0 l 187 699 q 242 781 201 747 q 333 814 286 814 l 1194 814 z "},"n":{"ha":1037,"x_min":0,"x_max":1160,"o":"m 0 0 l 186 696 q 243 780 200 745 q 336 814 288 814 l 1070 814 q 1144 780 1118 814 q 1160 728 1160 758 q 1156 696 1160 713 l 969 0 l 727 0 l 880 572 l 395 572 l 242 0 l 0 0 z "},"o":{"ha":1037,"x_min":27,"x_max":1160,"o":"m 880 572 l 395 572 l 307 242 l 792 242 l 880 572 m 186 696 q 243 779 200 746 q 335 814 288 814 l 1069 814 q 1144 779 1119 814 q 1160 728 1160 757 q 1156 696 1160 713 l 1000 117 q 945 35 987 68 q 852 0 901 0 l 117 0 q 44 35 68 0 q 27 86 27 56 q 31 117 27 101 l 186 696 z "},"p":{"ha":1037,"x_min":0,"x_max":1160,"o":"m 1070 814 q 1144 779 1119 814 q 1160 728 1160 757 q 1156 696 1160 713 l 1074 389 l 1073 389 q 1016 315 1056 345 q 930 286 975 286 l 319 286 l 242 0 l 0 0 l 110 409 q 168 493 123 458 q 261 528 211 528 l 885 528 l 897 572 l 153 572 l 218 814 l 1070 814 z "},"q":{"ha":1037,"x_min":27,"x_max":1160,"o":"m 880 572 l 395 572 l 307 242 l 429 242 l 473 411 l 715 411 l 671 242 l 792 242 l 880 572 m 1069 814 q 1144 779 1119 814 q 1160 728 1160 757 q 1156 696 1160 713 l 1000 117 q 945 35 987 68 q 852 0 901 0 l 117 0 q 44 35 68 0 q 27 86 27 56 q 31 117 27 101 l 186 696 q 243 779 200 746 q 335 814 288 814 l 1069 814 z "},"r":{"ha":1037,"x_min":0,"x_max":1160,"o":"m 1053 441 q 1027 407 1033 425 q 1026 397 1026 400 q 1035 372 1026 385 q 1051 322 1051 351 q 1046 290 1051 306 l 969 0 l 728 0 l 772 168 q 777 199 777 184 q 760 251 777 228 q 685 286 734 286 l 319 286 l 242 0 l 0 0 l 110 410 q 167 494 123 459 q 260 528 211 528 l 885 528 l 897 572 l 153 572 l 218 814 l 1069 814 q 1143 779 1118 814 q 1160 727 1160 756 q 1156 695 1160 711 l 1109 524 q 1053 441 1096 475 z "},"s":{"ha":1037,"x_min":0,"x_max":1187,"o":"m 994 526 q 1067 492 1042 526 q 1083 440 1083 469 q 1079 409 1083 425 l 1000 117 q 945 35 987 68 q 852 0 901 0 l 0 0 l 65 242 l 808 242 l 819 284 l 193 284 q 119 318 145 284 q 103 369 103 340 q 107 400 103 384 l 141 526 l 994 526 m 1187 814 l 1122 572 l 153 572 l 186 694 q 244 779 199 743 q 338 814 288 814 l 1187 814 z "},"t":{"ha":1037,"x_min":153,"x_max":1187,"o":"m 1187 814 l 1122 572 l 153 572 l 218 814 l 1187 814 m 747 528 l 606 0 l 363 0 l 505 528 l 747 528 z "},"u":{"ha":1037,"x_min":27,"x_max":1187,"o":"m 1187 814 l 1000 117 q 945 35 987 68 q 852 0 901 0 l 117 0 q 44 35 68 0 q 27 86 27 56 q 31 117 27 101 l 218 814 l 460 814 l 307 242 l 792 242 l 945 814 l 1187 814 z "},"v":{"ha":1037,"x_min":218,"x_max":1187,"o":"m 1187 814 l 719 77 q 661 21 697 43 q 587 0 625 0 l 382 0 q 321 21 345 0 q 292 77 295 43 l 218 814 l 476 814 l 532 265 q 552 248 534 248 q 581 265 570 248 l 930 814 l 1187 814 z "},"w":{"ha":1163,"x_min":28,"x_max":1314,"o":"m 504 287 l 613 694 l 855 694 l 746 287 l 504 287 m 1314 814 l 1126 115 q 1071 33 1113 66 q 981 0 1029 0 l 119 0 q 45 35 70 0 q 28 87 28 57 q 33 119 28 103 l 218 814 l 460 814 l 307 243 l 918 243 l 1072 814 l 1314 814 z "},"x":{"ha":1037,"x_min":0,"x_max":1187,"o":"m 134 373 q 161 407 156 391 q 162 416 162 414 q 153 441 162 429 q 136 493 136 464 q 140 524 136 508 l 218 814 l 460 814 l 415 645 q 411 614 411 629 q 427 562 411 586 q 501 528 453 528 l 750 528 q 843 563 800 528 q 901 647 888 598 l 946 814 l 1187 814 l 1109 524 q 1053 441 1096 475 q 1027 407 1033 425 q 1026 397 1026 400 q 1035 372 1026 385 q 1051 322 1051 351 q 1046 290 1051 306 l 969 0 l 728 0 l 772 168 q 777 199 777 184 q 760 251 777 228 q 685 286 734 286 l 437 286 q 344 252 388 286 q 287 168 300 216 l 242 0 l 0 0 l 77 290 q 134 373 91 338 z "},"y":{"ha":1037,"x_min":103,"x_max":1187,"o":"m 670 240 l 606 0 l 363 0 l 428 240 l 670 240 m 1187 814 l 1076 401 q 1020 318 1063 352 q 928 284 976 284 l 193 284 q 119 318 145 284 q 103 370 103 342 q 107 401 103 385 l 218 814 l 460 814 l 383 526 l 868 526 l 945 814 l 1187 814 z "},"z":{"ha":1037,"x_min":0,"x_max":1187,"o":"m 77 288 l 111 414 q 167 496 124 463 q 259 530 211 530 l 886 530 l 897 572 l 153 572 l 218 814 l 1187 814 l 1078 405 q 1021 322 1064 356 q 930 288 978 288 l 77 288 m 0 0 l 65 242 l 1034 242 l 969 0 l 0 0 z "},"{":{"ha":688,"x_min":0,"x_max":0,"o":""},"|":{"ha":688,"x_min":0,"x_max":0,"o":""},"}":{"ha":688,"x_min":0,"x_max":0,"o":""},"~":{"ha":688,"x_min":0,"x_max":0,"o":""},"¡":{"ha":357,"x_min":0,"x_max":0,"o":""},"¢":{"ha":772,"x_min":0,"x_max":0,"o":""},"£":{"ha":688,"x_min":0,"x_max":0,"o":""},"¤":{"ha":688,"x_min":0,"x_max":0,"o":""},"¥":{"ha":856,"x_min":0,"x_max":0,"o":""},"¦":{"ha":688,"x_min":0,"x_max":0,"o":""},"§":{"ha":688,"x_min":0,"x_max":0,"o":""},"¨":{"ha":694,"x_min":0,"x_max":0,"o":""},"©":{"ha":1135,"x_min":0,"x_max":0,"o":""},"ª":{"ha":439,"x_min":0,"x_max":0,"o":""},"«":{"ha":640,"x_min":0,"x_max":0,"o":""},"¬":{"ha":688,"x_min":0,"x_max":0,"o":""},"®":{"ha":1135,"x_min":0,"x_max":0,"o":""},"¯":{"ha":454,"x_min":0,"x_max":0,"o":""},"°":{"ha":457,"x_min":0,"x_max":0,"o":""},"±":{"ha":688,"x_min":0,"x_max":0,"o":""},"²":{"ha":688,"x_min":0,"x_max":0,"o":""},"³":{"ha":688,"x_min":0,"x_max":0,"o":""},"´":{"ha":694,"x_min":0,"x_max":0,"o":""},"µ":{"ha":800,"x_min":0,"x_max":0,"o":""},"¶":{"ha":694,"x_min":0,"x_max":0,"o":""},"·":{"ha":345,"x_min":0,"x_max":0,"o":""},"∙":{"ha":345,"x_min":0,"x_max":0,"o":""},"¸":{"ha":694,"x_min":0,"x_max":0,"o":""},"¹":{"ha":688,"x_min":0,"x_max":0,"o":""},"º":{"ha":487,"x_min":0,"x_max":0,"o":""},"»":{"ha":640,"x_min":0,"x_max":0,"o":""},"¼":{"ha":1158,"x_min":0,"x_max":0,"o":""},"½":{"ha":1332,"x_min":0,"x_max":0,"o":""},"¾":{"ha":1158,"x_min":0,"x_max":0,"o":""},"¿":{"ha":1037,"x_min":0,"x_max":0,"o":""},"À":{"ha":1044,"x_min":0,"x_max":0,"o":""},"Á":{"ha":1044,"x_min":0,"x_max":0,"o":""},"Â":{"ha":1044,"x_min":0,"x_max":0,"o":""},"Ã":{"ha":1044,"x_min":0,"x_max":0,"o":""},"Ä":{"ha":1044,"x_min":0,"x_max":0,"o":""},"Å":{"ha":1044,"x_min":0,"x_max":0,"o":""},"Æ":{"ha":1436,"x_min":0,"x_max":0,"o":""},"Ç":{"ha":949,"x_min":0,"x_max":0,"o":""},"È":{"ha":781,"x_min":0,"x_max":0,"o":""},"É":{"ha":781,"x_min":0,"x_max":0,"o":""},"Ê":{"ha":781,"x_min":0,"x_max":0,"o":""},"Ë":{"ha":781,"x_min":0,"x_max":0,"o":""},"Ì":{"ha":446,"x_min":0,"x_max":0,"o":""},"Í":{"ha":446,"x_min":0,"x_max":0,"o":""},"Î":{"ha":446,"x_min":0,"x_max":0,"o":""},"Ï":{"ha":446,"x_min":0,"x_max":0,"o":""},"Ð":{"ha":1029,"x_min":0,"x_max":0,"o":""},"Ñ":{"ha":1054,"x_min":0,"x_max":0,"o":""},"Ò":{"ha":1095,"x_min":0,"x_max":0,"o":""},"Ó":{"ha":1095,"x_min":0,"x_max":0,"o":""},"Ô":{"ha":1095,"x_min":0,"x_max":0,"o":""},"Õ":{"ha":1095,"x_min":0,"x_max":0,"o":""},"Ö":{"ha":1095,"x_min":0,"x_max":0,"o":""},"×":{"ha":688,"x_min":0,"x_max":0,"o":""},"Ø":{"ha":1095,"x_min":0,"x_max":0,"o":""},"Ù":{"ha":1018,"x_min":0,"x_max":0,"o":""},"Ú":{"ha":1018,"x_min":0,"x_max":0,"o":""},"Û":{"ha":1018,"x_min":0,"x_max":0,"o":""},"Ü":{"ha":1018,"x_min":0,"x_max":0,"o":""},"Ý":{"ha":836,"x_min":0,"x_max":0,"o":""},"Þ":{"ha":760,"x_min":0,"x_max":0,"o":""},"ß":{"ha":848,"x_min":0,"x_max":0,"o":""},"à":{"ha":625,"x_min":0,"x_max":0,"o":""},"á":{"ha":1037,"x_min":0,"x_max":0,"o":""},"â":{"ha":625,"x_min":0,"x_max":0,"o":""},"ã":{"ha":625,"x_min":0,"x_max":0,"o":""},"ä":{"ha":625,"x_min":0,"x_max":0,"o":""},"å":{"ha":625,"x_min":0,"x_max":0,"o":""},"æ":{"ha":986,"x_min":0,"x_max":0,"o":""},"ç":{"ha":614,"x_min":0,"x_max":0,"o":""},"è":{"ha":616,"x_min":0,"x_max":0,"o":""},"é":{"ha":1037,"x_min":0,"x_max":0,"o":""},"ê":{"ha":616,"x_min":0,"x_max":0,"o":""},"ë":{"ha":616,"x_min":0,"x_max":0,"o":""},"ì":{"ha":349,"x_min":0,"x_max":0,"o":""},"í":{"ha":310,"x_min":0,"x_max":0,"o":""},"î":{"ha":349,"x_min":0,"x_max":0,"o":""},"ï":{"ha":349,"x_min":0,"x_max":0,"o":""},"ð":{"ha":772,"x_min":0,"x_max":0,"o":""},"ñ":{"ha":751,"x_min":0,"x_max":0,"o":""},"ò":{"ha":685,"x_min":0,"x_max":0,"o":""},"ó":{"ha":1037,"x_min":0,"x_max":0,"o":""},"ô":{"ha":685,"x_min":0,"x_max":0,"o":""},"õ":{"ha":685,"x_min":0,"x_max":0,"o":""},"ö":{"ha":685,"x_min":0,"x_max":0,"o":""},"÷":{"ha":688,"x_min":0,"x_max":0,"o":""},"ø":{"ha":685,"x_min":0,"x_max":0,"o":""},"ù":{"ha":718,"x_min":0,"x_max":0,"o":""},"ú":{"ha":1037,"x_min":0,"x_max":0,"o":""},"û":{"ha":718,"x_min":0,"x_max":0,"o":""},"ü":{"ha":718,"x_min":0,"x_max":0,"o":""},"ý":{"ha":589,"x_min":0,"x_max":0,"o":""},"þ":{"ha":685,"x_min":0,"x_max":0,"o":""},"ÿ":{"ha":589,"x_min":0,"x_max":0,"o":""},"ı":{"ha":349,"x_min":0,"x_max":0,"o":""},"ˆ":{"ha":694,"x_min":0,"x_max":0,"o":""},"ˇ":{"ha":694,"x_min":0,"x_max":0,"o":""},"ˉ":{"ha":694,"x_min":0,"x_max":0,"o":""},"˘":{"ha":694,"x_min":0,"x_max":0,"o":""},"˙":{"ha":694,"x_min":0,"x_max":0,"o":""},"˚":{"ha":694,"x_min":0,"x_max":0,"o":""},"˛":{"ha":694,"x_min":0,"x_max":0,"o":""},"˜":{"ha":694,"x_min":0,"x_max":0,"o":""},"˝":{"ha":694,"x_min":0,"x_max":0,"o":""},"–":{"ha":751,"x_min":0,"x_max":0,"o":""},"—":{"ha":1389,"x_min":0,"x_max":0,"o":""},"‘":{"ha":378,"x_min":0,"x_max":0,"o":""},"’":{"ha":378,"x_min":0,"x_max":0,"o":""},"‚":{"ha":378,"x_min":0,"x_max":0,"o":""},"“":{"ha":617,"x_min":0,"x_max":0,"o":""},"”":{"ha":617,"x_min":0,"x_max":0,"o":""},"„":{"ha":617,"x_min":0,"x_max":0,"o":""},"†":{"ha":688,"x_min":0,"x_max":0,"o":""},"‡":{"ha":688,"x_min":0,"x_max":0,"o":""},"•":{"ha":694,"x_min":0,"x_max":0,"o":""},"…":{"ha":1389,"x_min":0,"x_max":0,"o":""},"‹":{"ha":428,"x_min":0,"x_max":0,"o":""},"›":{"ha":428,"x_min":0,"x_max":0,"o":""},"⁄":{"ha":232,"x_min":0,"x_max":0,"o":""},"∕":{"ha":232,"x_min":0,"x_max":0,"o":""},"₣":{"ha":688,"x_min":0,"x_max":0,"o":""},"₤":{"ha":688,"x_min":0,"x_max":0,"o":""},"₧":{"ha":1375,"x_min":0,"x_max":0,"o":""},"€":{"ha":1037,"x_min":0,"x_max":0,"o":""},"№":{"ha":1540,"x_min":0,"x_max":0,"o":""},"™":{"ha":1015,"x_min":0,"x_max":0,"o":""},"∂":{"ha":688,"x_min":0,"x_max":0,"o":""},"∆":{"ha":733,"x_min":0,"x_max":0,"o":""},"∏":{"ha":1027,"x_min":0,"x_max":0,"o":""},"∑":{"ha":818,"x_min":0,"x_max":0,"o":""},"−":{"ha":688,"x_min":0,"x_max":0,"o":""},"√":{"ha":688,"x_min":0,"x_max":0,"o":""},"∞":{"ha":688,"x_min":0,"x_max":0,"o":""},"∫":{"ha":451,"x_min":0,"x_max":0,"o":""},"≈":{"ha":688,"x_min":0,"x_max":0,"o":""},"≤":{"ha":688,"x_min":0,"x_max":0,"o":""},"≥":{"ha":688,"x_min":0,"x_max":0,"o":""},"":{"ha":728,"x_min":0,"x_max":0,"o":""},"ﬁ":{"ha":728,"x_min":0,"x_max":0,"o":""},"":{"ha":733,"x_min":0,"x_max":0,"o":""},"ﬂ":{"ha":733,"x_min":0,"x_max":0,"o":""}}}
